<svg xmlns="http://www.w3.org/2000/svg" viewBox="0 0 116.1 46.8" enable-background="new 0 0 116.1 46.8"><g fill="#1771b2"><path d="m11.1 36.2c0 0-1.8 1 1.3 1.4 3.7.4 5.6.4 9.7-.4 0 0 1.1.7 2.6 1.3-9.2 3.9-20.8-.3-13.6-2.3"/><path d="m10 31.1c0 0-2 1.5 1.1 1.8 4 .4 7.1.4 12.5-.6 0 0 .7.8 1.9 1.2-11.1 3.2-23.4.2-15.5-2.4"/></g><path d="m19.5 22.4c2.3 2.6-.6 4.9-.6 4.9s5.7-3 3.1-6.7c-2.5-3.5-4.3-5.2 5.9-11.1-.1.1-16.1 4.1-8.4 12.9" fill="#da262a"/><g fill="#1771b2"><path d="m31.6 40c0 0 1.3 1.1-1.5 1.9-5.3 1.7-22 2.1-26.7.1-1.7-.7 1.5-1.7 2.4-1.9 1-.2 1.6-.2 1.6-.2-1.9-1.3-12 2.6-5.2 3.7 18.8 3 34.2-1.4 29.4-3.6"/><path d="m12 25.8c0 0-8.5 2-3 2.8 2.3.3 7 .2 11.3-.1 3.5-.3 7.1-.9 7.1-.9s-1.2.5-2.1 1.1c-8.6 2.3-25.3 1.2-20.5-1.1 3.9-2 7.2-1.8 7.2-1.8"/><path d="m27.3 34.3c8.8-4.6 4.7-9 1.9-8.4-.7.1-1 .3-1 .3s.3-.4.8-.6c5.6-2 9.9 5.8-1.8 8.9-.1.1 0-.1.1-.2"/></g><path d="M22,0c0,0,4.9,4.9-4.6,12.4c-7.6,6-1.7,9.4,0,13.3c-4.4-4-7.7-7.5-5.5-10.8C15,10.1,23.9,7.7,22,0" fill="#da262a"/><path d="m12.9 46.7c8.4.5 21.4-.3 21.7-4.3 0 0-.6 1.5-7 2.7-7.2 1.4-16.1 1.2-21.3.3-.1 0 1 .9 6.6 1.3" fill="#1771b2"/><g fill="#da262a"><path d="m50.2 32.8v.6c0 2 .2 3.4.6 4.2.4.8 1.2 1.2 2.4 1.2 1.2 0 2-.4 2.4-1.3.2-.5.3-1.4.3-2.7v-18.1h5.4v18c0 2.2-.4 3.9-1.1 5.2-1.3 2.2-3.5 3.3-6.8 3.3-3.3 0-5.5-.9-6.6-2.6-1.1-1.8-1.7-4.2-1.7-7.2v-.6h5.1"/><path d="M82.3,16.7h5.6L79,42.6h-5.1l-8.8-25.9H71l5.6,19.7L82.3,16.7z"/><path d="m108.3 16.7h7.8v25.9h-5v-17.5c0-.5 0-1.2 0-2.1s0-1.6 0-2.1l-4.9 21.7h-5.3l-4.9-21.7c0 .5 0 1.2 0 2.1s0 1.6 0 2.1v17.5h-5v-25.9h7.9l4.7 20.4 4.7-20.4"/></g></svg>